<?xml version="1.0" encoding="utf-8"?>
<!-- Generator: Adobe Illustrator 28.0.0, SVG Export Plug-In . SVG Version: 6.00 Build 0)  -->
<svg version="1.1" id="Слой_1" xmlns="http://www.w3.org/2000/svg" xmlns:xlink="http://www.w3.org/1999/xlink" x="0px" y="0px"
	 viewBox="0 0 1000 1000" enable-background="new 0 0 1000 1000" xml:space="preserve">
<g id="ic_ag">
	<g id="编组" transform="translate(2.000000, 2.000000)">
		
			<linearGradient id="Fill-1_00000174593341045452311110000015839437409050300551_" gradientUnits="userSpaceOnUse" x1="7.1981258" y1="1001.2672729" x2="7.1981258" y2="973.489502" gradientTransform="matrix(36 0 0 -36 239.3399963 36044.0390625)">
			<stop  offset="0" style="stop-color:#FB6361"/>
			<stop  offset="1" style="stop-color:#ED3E45"/>
		</linearGradient>
		
			<path id="Fill-1" fill-rule="evenodd" clip-rule="evenodd" fill="url(#Fill-1_00000174593341045452311110000015839437409050300551_)" d="
			M279.0558472-1.5824176c-205.4412994,0-280.583313,75.1289139-280.583313,280.528595v438.9428101
			c0,205.3997192,75.1420212,280.5286255,280.583313,280.5286255h438.699646
			c205.4354858,0,280.717041-75.1289062,280.717041-280.5286255V278.946167
			c0-205.3996735-75.1420288-280.528595-280.583313-280.528595H279.0558472z"/>
		
			<path id="Fill-1_00000073695951559073642100000014361716246167820931_" fill-rule="evenodd" clip-rule="evenodd" fill="#FFFFFF" d="
			M434.668396,578.3967896h40.1463318l-20.1414795-46.8414307L434.668396,578.3967896z M424.7825012,602.0023193
			l-11.9112549,27.2545166h-27.1178589l57.6676636-130.8312073h23.4367371l57.4345703,130.8312073h-27.8411865
			l-11.758606-27.2545166H424.7825012z M861.1517944,629.1604004h26.2095947V498.417572h-26.2095947V629.1604004z
			 M756.8356323,572.9957275h48.3121948v-23.838623h-48.3121948v-26.7963867h70.1334839v-23.8467102h-96.335144v130.7347717
			h98.8588867v-23.8466797h-72.6572266V572.9957275z M652.6962891,588.4433594l-29.7138672-90.0257874h-21.6846924
			l-29.7138672,90.0257874l-28.9182129-89.9534607h-28.2752075l45.6358032,130.8392639h21.9819946l29.762146-85.9428711
			l29.762085,85.9428711h22.1749268l45.5152588-130.8392639H681.678833L652.6962891,588.4433594z M345.7436829,573.3573608
			c0,21.2827759-10.5690613,32.6556396-29.7621155,32.6556396c-19.2975769,0-29.9228821-11.7023315-29.9228821-33.5637817
			V498.506012h-26.5632629v74.8513489c0,36.8189087,20.4629517,57.9329224,56.1244812,57.9329224
			c36.0151367,0,56.6629639-21.5158691,56.6629639-59.026001v-73.8386536h-26.5391846V573.3573608z M196.1212769,498.4256287
			h26.5472107v130.9115906h-26.5472107v-53.1668091h-59.97435v53.1668091h-26.5632858V498.4256287h26.5632858v52.8050842h59.97435
			V498.4256287z"/>
		<path id="Fill-3" fill-rule="evenodd" clip-rule="evenodd" fill="#FFFFFF" d="M498.4725342,331.7509155
			c-91.9094238,0-166.666687-74.7653198-166.666687-166.6666718h23.5419922
			c0,78.9126892,64.2120056,143.1166534,143.1246948,143.1166534S641.597229,243.996933,641.597229,165.0842438h23.5419922
			C665.1392212,256.9855957,590.3739014,331.7509155,498.4725342,331.7509155"/>
	</g>
</g>
</svg>
