<?xml version="1.0" encoding="utf-8"?>
<!-- Generator: Adobe Illustrator 28.0.0, SVG Export Plug-In . SVG Version: 6.00 Build 0)  -->
<svg version="1.1" id="Слой_1" xmlns="http://www.w3.org/2000/svg" xmlns:xlink="http://www.w3.org/1999/xlink" x="0px" y="0px"
	 viewBox="0 0 1000 1000" enable-background="new 0 0 1000 1000" xml:space="preserve">
<linearGradient id="SVGID_1_" gradientUnits="userSpaceOnUse" x1="294.9544983" y1="1091.2521973" x2="294.9544983" y2="81.3242722" gradientTransform="matrix(0.9901696 0 0 -0.9901696 207.9450226 1080.5247803)">
	<stop  offset="0" style="stop-color:#19E6FF"/>
	<stop  offset="1" style="stop-color:#1E51EE"/>
</linearGradient>
<path fill="url(#SVGID_1_)" d="M999.999939,687.1780396c0,11.9569702,0,23.892395-0.0901489,35.8276367
	c-0.0592651,10.0656738-0.1737061,20.1312866-0.4348145,30.175354c-0.2770386,22.0062256-2.2098999,43.9605713-5.7825928,65.6766968
	c-3.7174683,21.7400513-10.6521606,42.7844238-20.586792,62.4592896
	c-20.1361694,39.5319824-52.2738037,71.6711426-91.803772,91.8082886
	c-19.6655884,9.9215088-40.701355,16.8532715-62.4126587,20.5661011
	c-21.7390137,3.5870972-43.6953735,5.5220337-65.6952515,5.782959c-10.0559692,0.2598267-20.1144409,0.4118652-30.1737671,0.4559326
	C711.0637817,1000,699.1290894,1000,687.1943359,1000H312.805542c-11.9346924,0-23.8694153,0-35.8258362-0.0592041
	c-10.0591431-0.0394897-20.1176758-0.182251-30.1737061-0.4348755c-22.0131836-0.2810059-43.9738312-2.2211914-65.695282-5.8046875
	c-21.7172394-3.6958618-42.760498-10.652832-62.4125977-20.5662231
	C79.172287,953.001709,47.0354004,920.8708496,26.894331,881.3477173
	c-9.9316349-19.6869507-16.8702908-40.7458496-20.5867672-62.480957
	c-3.5725765-21.7088623-5.5055642-43.6559448-5.7825618-65.6550293
	c-0.2609983-10.0656738-0.3909974-20.1312866-0.4349971-30.1969604C0,711.0577393,0,699.144165,0,687.1871948V312.8229675
	c0-11.9570923,0-23.914093,0.0899994-35.8710938c0.04-10.0439758,0.1739989-20.1096191,0.4349971-30.1535034
	c0.2769982-21.9990997,2.2102854-43.9462128,5.7825618-65.6551514c3.7173753-21.7399902,10.652132-42.7843933,20.5867672-62.480896
	c20.1361694-39.5320129,52.2737579-71.6713181,91.8037949-91.8084183
	c19.6599731-9.9164028,40.687851-16.8479023,62.3909149-20.566103c21.7389374-3.5654006,43.6952972-5.5002012,65.6951599-5.7828012
	c10.0652313-0.261,20.1303864-0.391,30.1736908-0.4350001C288.9144287,0,300.8708496,0,312.783783,0h374.3888245
	c11.9564819,0,23.9129639,0,35.8476562,0.07c10.059082,0.04,20.1175537,0.1820001,30.173645,0.4350001
	c21.9998779,0.2830001,43.9562378,2.2174006,65.6735229,5.7828012c21.7389526,3.7176013,42.7606812,10.6527004,62.4343872,20.566103
	c39.539856,20.1310043,71.6860962,52.2713089,91.8255005,91.8084183
	c9.9232178,19.6809082,16.8544922,40.7324219,20.5650024,62.4592133c3.572937,21.7161255,5.5057983,43.6704102,5.7826538,65.6768341
	c0.2611084,10.0655823,0.3908081,20.1312866,0.4348145,30.1752014C1000,288.9305725,1000,300.8658752,1000,312.801178
	L999.999939,687.1780396z"/>
<path fill="#FFFFFF" d="M558.2177734,180.703125c-4.3850098,0.0349121-8.7150879,0.7440491-12.8564453,2.0605469
	c-7.4082031,2.355011-13.178772,6.3735657-17.7392578,10.9008789c-4.7139893,4.679718-9.5615845,12.3756409-10.7299805,14.3994141
	l-17.1655273,29.675293l-14.1308594-24.9755859c-3.178894-5.4546967-6.0231934-9.7893524-8.6816406-13.2910156
	c-6.3083191-8.3092346-12.1509094-12.000885-16.171875-13.9672699c-13.1426392-6.4271851-28.1542664-6.585434-41.4160156,0.9936523
	c-8.5288696,4.9717407-14.7827148,12.3586121-18.4741211,20.8105469c-2.8150024,6.4453278-4.218689,13.3759155-3.5449219,21.1328125
	c0.8063049,9.2832947,3.7529907,17.1834412,10.5126953,28.8916168l40.324707,70.7226257l-145.793457,255.3564453H199.0283203
	c-16.5379333-0.0502319-23.1262817,1.3192139-29.1601562,3.75c-4.7314148,1.9060669-9.133316,4.4825439-12.7026367,7.6000977
	c-9.4409027,8.2459717-15.4670715,20.276062-15.5078125,33.6889648c0,12.4135132,5.053299,23.661438,13.2006836,31.8457031
	c4.2774811,4.296875,9.8651733,7.7495117,15.9521484,10.0830078c5.6934204,2.1826172,15.2654877,3.3862305,25.46875,3.3862305
	h398.8330078c9.3693237-20.7567749,6.8994751-43.3933716-4.9829102-61.6430664
	c-10.8110352-16.604187-30.3322144-28.7109375-52.7539062-28.7109375H405.6005859l187.2680664-328.1176758
	c3.5393066-6.1945343,5.9812622-11.761795,7.5341797-16.8481445c3.4401245-11.2674255,2.315918-21.7709656-1.3647461-30.5395508
	c-3.6599731-8.7193604-10.137207-16.3538971-19.0332031-21.4379883
	C572.9915161,182.4615784,565.526123,180.6449738,558.2177734,180.703125z M564.5776367,352.8198242
	c0,0-3.979126,3.1113892-10.7250977,12.3730469c-3.8968506,5.3500061-7.34375,11.0242004-10.378418,16.9604492
	c-2.7501831,5.5195312-5.0667725,11.2212524-6.9482422,17.0361328
	c-11.2016602,34.6197815-7.0661011,73.3748169,12.1411133,106.796875l160.9594727,280.0830078
	c9.9237671,17.3901367,12.6971436,19.3468018,17.7978516,23.3569336c3.9996338,3.1445312,8.3529663,5.7704468,12.8222656,7.3071289
	c11.8212891,4.0646973,25.2182617,3.2938232,36.8334961-3.3422852
	c10.7310791-6.1742554,17.8172607-16.2403564,20.8422852-27.3583984c1.5881958-5.8370972,1.7947388-12.3853149,0.7861328-18.8110352
	c-0.9432983-6.0102539-4.5349731-14.8901978-9.6069336-23.7158203l-40.2587891-70.0512695h54.8168945
	c10.2032471,0,19.7753296-1.2045288,25.46875-3.3886719c6.0869751-2.335144,11.6746826-5.7904663,15.9521484-10.090332
	c8.1473389-8.1899414,13.2495117-19.4455566,13.2495117-31.8676758
	c-0.0407715-13.4221802-6.1791992-25.4592896-15.6201172-33.7109375c-3.5693359-3.1196899-7.9711914-5.6976318-12.7026367-7.6049805
	c-6.0339355-2.4324341-13.8721924-3.8051147-30.4101562-3.7548828H696.8823242L564.5776367,352.8198242z M262.4707031,692.4951172
	c-4.9743958-0.0134277-9.9208984,0.367981-14.5581055,1.184082c-4.370636,0.7692261-8.642746,1.4763184-12.5854492,2.590332
	l-28.2373047,48.9208984c-4.5034637,7.8002319-7.7255402,15.8046875-8.9648438,21.8017578
	c-0.664917,3.2176514-0.7520905,5.6184692-0.7861328,8.6962891c-0.1536713,13.8918457,7.844101,29.5102539,21.7773438,37.4731445
	c14.294281,8.1691895,31.8505554,7.8886719,45.1342773-0.3222656c7.8336182-4.8421631,12.4161072-9.2626953,21.7431641-24.8876953
	l38.2470703-66.1474609c-4.5892029-5.8025513-9.263031-10.5917358-14.765625-14.6582031
	c-7.1639709-5.2941895-15.1707153-9.1618042-23.1787109-11.4550781
	C279.133667,693.6397705,270.7613525,692.5175781,262.4707031,692.4951172z"/>
</svg>
