<?xml version="1.0" encoding="UTF-8"?>
<!DOCTYPE svg PUBLIC "-//W3C//DTD SVG 1.1//EN" "http://www.w3.org/Graphics/SVG/1.1/DTD/svg11.dtd">
<svg xmlns="http://www.w3.org/2000/svg" version="1.1" width="4090px" height="515px" style="shape-rendering:geometricPrecision; text-rendering:geometricPrecision; image-rendering:optimizeQuality; fill-rule:evenodd; clip-rule:evenodd" xmlns:xlink="http://www.w3.org/1999/xlink">
<g><path style="opacity:1" fill="#010101" d="M 305.5,514.5 C 258.5,514.5 211.5,514.5 164.5,514.5C 89.4578,496.191 39.9578,450.191 16,376.5C 6.93393,347.014 1.43393,317.014 -0.5,286.5C -0.5,269.5 -0.5,252.5 -0.5,235.5C 2.5389,176.877 21.7056,124.21 57,77.5C 98.9345,30.0437 151.768,4.54368 215.5,1C 274.702,-2.35931 331.035,8.64069 384.5,34C 374.614,56.3199 365.114,78.8199 356,101.5C 355.152,103.874 353.819,105.874 352,107.5C 333.207,99.3541 314.04,92.1875 294.5,86C 264.26,76.6869 233.593,75.0202 202.5,81C 156.749,93.4126 125.582,121.913 109,166.5C 98.4862,196.927 93.3195,228.26 93.5,260.5C 92.9053,298.604 99.7386,335.271 114,370.5C 140.24,421.308 182.24,445.641 240,443.5C 272.647,443.364 304.48,438.198 335.5,428C 345.153,425.227 354.653,422.06 364,418.5C 364.833,444.506 364.667,470.506 363.5,496.5C 344.533,504.069 325.199,510.069 305.5,514.5 Z"/></g>
<g><path style="opacity:1" fill="#010101" d="M 3110.5,-0.5 C 3124.17,-0.5 3137.83,-0.5 3151.5,-0.5C 3264.28,7.44108 3333.78,66.4411 3360,176.5C 3374.55,246.617 3370.55,315.617 3348,383.5C 3320.41,454.253 3269.58,497.92 3195.5,514.5C 3151.5,514.5 3107.5,514.5 3063.5,514.5C 2982.46,495.3 2929.96,445.633 2906,365.5C 2893.06,316.914 2889.06,267.581 2894,217.5C 2897.26,176.398 2908.59,137.732 2928,101.5C 2959.28,50.2558 3004.45,18.4224 3063.5,6C 3079.19,2.92447 3094.86,0.757803 3110.5,-0.5 Z M 3116.5,76.5 C 3118.5,76.5 3120.5,76.5 3122.5,76.5C 3128.63,77.4258 3134.63,77.4258 3140.5,76.5C 3145.47,77.1637 3150.47,77.4971 3155.5,77.5C 3156.17,78.2674 3157.01,78.9341 3158,79.5C 3158.4,79.2716 3158.57,78.9382 3158.5,78.5C 3170.55,80.0947 3182.21,83.0947 3193.5,87.5C 3194.01,89.1054 3194.67,89.4387 3195.5,88.5C 3198.86,90.1799 3202.19,91.8466 3205.5,93.5C 3205.97,94.9063 3206.97,95.573 3208.5,95.5C 3214.09,99.0757 3219.42,103.076 3224.5,107.5C 3224.83,109.833 3226.17,111.167 3228.5,111.5C 3230.14,113.481 3231.81,115.481 3233.5,117.5C 3233.43,119.027 3234.09,120.027 3235.5,120.5C 3235.5,121.167 3235.83,121.5 3236.5,121.5C 3236.5,122.833 3237.17,123.5 3238.5,123.5C 3238.73,125.062 3239.4,126.395 3240.5,127.5C 3240.5,128.833 3241.17,129.5 3242.5,129.5C 3246.29,137.082 3250.12,144.749 3254,152.5C 3257.25,161.088 3260.08,169.421 3262.5,177.5C 3260.97,178.925 3261.3,179.591 3263.5,179.5C 3263.5,180.167 3263.5,180.833 3263.5,181.5C 3261.97,182.925 3262.3,183.591 3264.5,183.5C 3264.52,185.565 3264.85,187.565 3265.5,189.5C 3264.19,190.895 3264.52,191.895 3266.5,192.5C 3266.5,193.167 3266.5,193.833 3266.5,194.5C 3266.06,194.435 3265.73,194.601 3265.5,195C 3266.07,195.995 3266.73,196.828 3267.5,197.5C 3267.51,200.545 3267.84,203.545 3268.5,206.5C 3268.59,207.496 3268.25,208.329 3267.5,209C 3268.09,209.464 3268.76,209.631 3269.5,209.5C 3269.59,213.857 3269.92,218.19 3270.5,222.5C 3270.06,222.435 3269.73,222.601 3269.5,223C 3270.1,224.622 3270.77,226.122 3271.5,227.5C 3271.5,229.833 3271.5,232.167 3271.5,234.5C 3271.06,234.435 3270.73,234.601 3270.5,235C 3271.14,238.603 3271.8,242.103 3272.5,245.5C 3272.5,255.167 3272.5,264.833 3272.5,274.5C 3271.78,276.556 3271.12,278.723 3270.5,281C 3270.73,281.399 3271.06,281.565 3271.5,281.5C 3271.5,284.833 3271.5,288.167 3271.5,291.5C 3270.75,292.531 3270.08,293.698 3269.5,295C 3269.88,295.951 3270.22,296.784 3270.5,297.5C 3270.5,298.833 3270.5,300.167 3270.5,301.5C 3269.78,303.218 3269.11,305.052 3268.5,307C 3268.73,307.399 3269.06,307.565 3269.5,307.5C 3269.5,308.167 3269.5,308.833 3269.5,309.5C 3268.75,310.531 3268.08,311.698 3267.5,313C 3267.73,313.399 3268.06,313.565 3268.5,313.5C 3268.5,314.5 3268.5,315.5 3268.5,316.5C 3267.73,317.172 3267.07,318.005 3266.5,319C 3266.73,319.399 3267.06,319.565 3267.5,319.5C 3266.45,323.426 3265.78,327.426 3265.5,331.5C 3263.89,332.006 3263.56,332.673 3264.5,333.5C 3263.24,336.694 3262.58,340.027 3262.5,343.5C 3260.89,344.006 3260.56,344.673 3261.5,345.5C 3255.76,367.928 3244.76,388.262 3228.5,406.5C 3227.17,406.5 3226.5,407.167 3226.5,408.5C 3204.47,429.25 3178.13,440.417 3147.5,442C 3064.1,448.404 3013.27,410.904 2995,329.5C 2987.14,286.288 2986.47,242.955 2993,199.5C 2997.95,163.444 3013.11,132.611 3038.5,107C 3051.73,95.7141 3066.73,87.5474 3083.5,82.5C 3084.33,83.4387 3084.99,83.1054 3085.5,81.5C 3087.56,81.4828 3089.56,81.1495 3091.5,80.5C 3091.43,80.9382 3091.6,81.2716 3092,81.5C 3092.99,80.9341 3093.83,80.2674 3094.5,79.5C 3095.17,79.5 3095.83,79.5 3096.5,79.5C 3096.43,79.9382 3096.6,80.2716 3097,80.5C 3097.99,79.9341 3098.83,79.2674 3099.5,78.5C 3103.2,78.4476 3106.86,78.1143 3110.5,77.5C 3110.43,77.9382 3110.6,78.2716 3111,78.5C 3112.95,77.8906 3114.78,77.224 3116.5,76.5 Z"/></g>
<g><path style="opacity:1" fill="#040404" d="M 1440.5,4.5 C 1537.5,4.33334 1634.5,4.5 1731.5,5C 1732.66,29.761 1732.83,54.5943 1732,79.5C 1634.9,80.6652 1537.74,80.8318 1440.5,80C 1439.17,54.8333 1439.17,29.6667 1440.5,4.5 Z"/></g>
<g><path style="opacity:1" fill="#000000" d="M 1093.5,7.5 C 1093.5,175.833 1093.5,344.167 1093.5,512.5C 1063.5,512.5 1033.5,512.5 1003.5,512.5C 1003.5,437.833 1003.5,363.167 1003.5,288.5C 929.5,288.5 855.5,288.5 781.5,288.5C 780.501,362.998 780.167,437.665 780.5,512.5C 750.5,512.5 720.5,512.5 690.5,512.5C 690.5,344.167 690.5,175.833 690.5,7.5C 720.833,7.5 751.167,7.5 781.5,7.5C 781.5,75.5 781.5,143.5 781.5,211.5C 855.5,211.5 929.5,211.5 1003.5,211.5C 1003.5,143.5 1003.5,75.5 1003.5,7.5C 1033.5,7.5 1063.5,7.5 1093.5,7.5 Z"/></g>
<g><path style="opacity:1" fill="#010101" d="M 2267.5,250.5 C 2267.78,251.289 2268.28,251.956 2269,252.5C 2269.5,170.834 2269.67,89.1673 2269.5,7.5C 2297.5,7.5 2325.5,7.5 2353.5,7.5C 2353.33,89.1673 2353.5,170.834 2354,252.5C 2354.72,251.956 2355.22,251.289 2355.5,250.5C 2413.28,169.784 2470.95,88.9506 2528.5,8C 2560.5,7.33333 2592.5,7.33333 2624.5,8C 2564.82,89.0108 2505.15,170.011 2445.5,251C 2507.73,337.72 2569.73,424.553 2631.5,511.5C 2599,512.498 2566.34,512.832 2533.5,512.5C 2473.81,428.133 2414.48,343.467 2355.5,258.5C 2355.44,257.957 2355.11,257.624 2354.5,257.5C 2353.5,342.497 2353.17,427.497 2353.5,512.5C 2325.5,512.5 2297.5,512.5 2269.5,512.5C 2269.83,427.497 2269.5,342.497 2268.5,257.5C 2267.89,257.624 2267.56,257.957 2267.5,258.5C 2208.31,343.555 2148.65,428.221 2088.5,512.5C 2055.66,512.832 2023,512.498 1990.5,511.5C 2052.71,424.924 2115.04,338.424 2177.5,252C 2118.23,170.397 2058.57,89.0632 1998.5,8C 2030.5,7.33333 2062.5,7.33333 2094.5,8C 2152.54,88.5986 2210.21,169.432 2267.5,250.5 Z"/></g>
<g><path style="opacity:1" fill="#696969" d="M 2353.5,7.5 C 2354.17,88.5 2354.83,169.5 2355.5,250.5C 2355.22,251.289 2354.72,251.956 2354,252.5C 2353.5,170.834 2353.33,89.1673 2353.5,7.5 Z"/></g>
<g><path style="opacity:1" fill="#888988" d="M 3979.5,9.5 C 4011.67,8.17004 4044,8.17004 4076.5,9.5C 4076.38,10.1067 4076.04,10.44 4075.5,10.5C 4043.67,9.50178 4011.67,9.16844 3979.5,9.5 Z"/></g>
<g><path style="opacity:1" fill="#020202" d="M 3979.5,9.5 C 4011.67,9.16844 4043.67,9.50178 4075.5,10.5C 3977.61,125.712 3881.61,242.378 3787.5,360.5C 3786.16,411.373 3784.82,462.373 3783.5,513.5C 3753.26,513.829 3723.09,513.495 3693,512.5C 3692.33,344.833 3692.33,177.167 3693,9.5C 3724,8.16667 3755,8.16667 3786,9.5C 3786.33,89.1667 3786.67,168.833 3787,248.5C 3850.71,168.398 3914.87,88.731 3979.5,9.5 Z"/></g>
<g><path style="opacity:1" fill="#838383" d="M 2269.5,7.5 C 2269.67,89.1673 2269.5,170.834 2269,252.5C 2268.28,251.956 2267.78,251.289 2267.5,250.5C 2268.17,169.5 2268.83,88.5 2269.5,7.5 Z"/></g>
<g><path style="opacity:1" fill="#353535" d="M 3122.5,76.5 C 3128.5,75.1667 3134.5,75.1667 3140.5,76.5C 3134.63,77.4258 3128.63,77.4258 3122.5,76.5 Z"/></g>
<g><path style="opacity:1" fill="#6a6a6a" d="M 3116.5,76.5 C 3114.78,77.224 3112.95,77.8906 3111,78.5C 3110.6,78.2716 3110.43,77.9382 3110.5,77.5C 3112.26,76.5386 3114.26,76.2053 3116.5,76.5 Z"/></g>
<g><path style="opacity:1" fill="#828282" d="M 3155.5,77.5 C 3156.79,77.2627 3157.79,77.596 3158.5,78.5C 3158.57,78.9382 3158.4,79.2716 3158,79.5C 3157.01,78.9341 3156.17,78.2674 3155.5,77.5 Z"/></g>
<g><path style="opacity:1" fill="#6e6e6e" d="M 3099.5,78.5 C 3098.83,79.2674 3097.99,79.9341 3097,80.5C 3096.6,80.2716 3096.43,79.9382 3096.5,79.5C 3097.21,78.596 3098.21,78.2627 3099.5,78.5 Z"/></g>
<g><path style="opacity:1" fill="#6e6e6e" d="M 3094.5,79.5 C 3093.83,80.2674 3092.99,80.9341 3092,81.5C 3091.6,81.2716 3091.43,80.9382 3091.5,80.5C 3092.21,79.596 3093.21,79.2627 3094.5,79.5 Z"/></g>
<g><path style="opacity:1" fill="#676767" d="M 3085.5,81.5 C 3084.99,83.1054 3084.33,83.4387 3083.5,82.5C 3083.84,81.6618 3084.51,81.3284 3085.5,81.5 Z"/></g>
<g><path style="opacity:1" fill="#656565" d="M 3193.5,87.5 C 3194.49,87.3284 3195.16,87.6618 3195.5,88.5C 3194.67,89.4387 3194.01,89.1054 3193.5,87.5 Z"/></g>
<g><path style="opacity:1" fill="#4f4f4f" d="M 3205.5,93.5 C 3207.03,93.427 3208.03,94.0937 3208.5,95.5C 3206.97,95.573 3205.97,94.9063 3205.5,93.5 Z"/></g>
<g><path style="opacity:1" fill="#656565" d="M 3224.5,107.5 C 3226.17,108.5 3227.5,109.833 3228.5,111.5C 3226.17,111.167 3224.83,109.833 3224.5,107.5 Z"/></g>
<g><path style="opacity:1" fill="#747474" d="M 3233.5,117.5 C 3234.91,117.973 3235.57,118.973 3235.5,120.5C 3234.09,120.027 3233.43,119.027 3233.5,117.5 Z"/></g>
<g><path style="opacity:1" fill="#6f6f6f" d="M 3236.5,121.5 C 3237.5,121.833 3238.17,122.5 3238.5,123.5C 3237.17,123.5 3236.5,122.833 3236.5,121.5 Z"/></g>
<g><path style="opacity:1" fill="#767676" d="M 3240.5,127.5 C 3241.5,127.833 3242.17,128.5 3242.5,129.5C 3241.17,129.5 3240.5,128.833 3240.5,127.5 Z"/></g>
<g><path style="opacity:1" fill="#676767" d="M 3262.5,177.5 C 3263.34,177.842 3263.67,178.508 3263.5,179.5C 3261.3,179.591 3260.97,178.925 3262.5,177.5 Z"/></g>
<g><path style="opacity:1" fill="#767676" d="M 3263.5,181.5 C 3264.34,181.842 3264.67,182.508 3264.5,183.5C 3262.3,183.591 3261.97,182.925 3263.5,181.5 Z"/></g>
<g><path style="opacity:1" fill="#6e6e6e" d="M 3265.5,189.5 C 3266.4,190.209 3266.74,191.209 3266.5,192.5C 3264.52,191.895 3264.19,190.895 3265.5,189.5 Z"/></g>
<g><path style="opacity:1" fill="#646464" d="M 3266.5,194.5 C 3267.4,195.209 3267.74,196.209 3267.5,197.5C 3266.73,196.828 3266.07,195.995 3265.5,195C 3265.73,194.601 3266.06,194.435 3266.5,194.5 Z"/></g>
<g><path style="opacity:1" fill="#7a7a7a" d="M 3268.5,206.5 C 3269.4,207.209 3269.74,208.209 3269.5,209.5C 3268.76,209.631 3268.09,209.464 3267.5,209C 3268.25,208.329 3268.59,207.496 3268.5,206.5 Z"/></g>
<g><path style="opacity:1" fill="#050505" d="M 1440.5,208.5 C 1537.5,208.333 1634.5,208.5 1731.5,209C 1732.66,233.761 1732.83,258.594 1732,283.5C 1634.9,284.665 1537.74,284.832 1440.5,284C 1439.17,258.833 1439.17,233.667 1440.5,208.5 Z"/></g>
<g><path style="opacity:1" fill="#676767" d="M 3270.5,222.5 C 3271.45,223.919 3271.78,225.585 3271.5,227.5C 3270.77,226.122 3270.1,224.622 3269.5,223C 3269.73,222.601 3270.06,222.435 3270.5,222.5 Z"/></g>
<g><path style="opacity:1" fill="#686868" d="M 3271.5,234.5 C 3272.48,237.962 3272.81,241.629 3272.5,245.5C 3271.8,242.103 3271.14,238.603 3270.5,235C 3270.73,234.601 3271.06,234.435 3271.5,234.5 Z"/></g>
<g><path style="opacity:1" fill="#626262" d="M 2355.5,258.5 C 2354.5,343.332 2354.17,428.332 2354.5,513.5C 2326,513.831 2297.66,513.498 2269.5,512.5C 2297.5,512.5 2325.5,512.5 2353.5,512.5C 2353.17,427.497 2353.5,342.497 2354.5,257.5C 2355.11,257.624 2355.44,257.957 2355.5,258.5 Z"/></g>
<g><path style="opacity:1" fill="#767676" d="M 3272.5,274.5 C 3272.8,277.059 3272.47,279.393 3271.5,281.5C 3271.06,281.565 3270.73,281.399 3270.5,281C 3271.12,278.723 3271.78,276.556 3272.5,274.5 Z"/></g>
<g><path style="opacity:1" fill="#6e6e6e" d="M 3271.5,291.5 C 3271.79,293.735 3271.46,295.735 3270.5,297.5C 3270.22,296.784 3269.88,295.951 3269.5,295C 3270.08,293.698 3270.75,292.531 3271.5,291.5 Z"/></g>
<g><path style="opacity:1" fill="#4e4e4e" d="M 3270.5,301.5 C 3270.79,303.735 3270.46,305.735 3269.5,307.5C 3269.06,307.565 3268.73,307.399 3268.5,307C 3269.11,305.052 3269.78,303.218 3270.5,301.5 Z"/></g>
<g><path style="opacity:1" fill="#5d5d5d" d="M 3269.5,309.5 C 3269.77,311.099 3269.43,312.432 3268.5,313.5C 3268.06,313.565 3267.73,313.399 3267.5,313C 3268.08,311.698 3268.75,310.531 3269.5,309.5 Z"/></g>
<g><path style="opacity:1" fill="#5f5f5f" d="M 3268.5,316.5 C 3268.74,317.791 3268.4,318.791 3267.5,319.5C 3267.06,319.565 3266.73,319.399 3266.5,319C 3267.07,318.005 3267.73,317.172 3268.5,316.5 Z"/></g>
<g><path style="opacity:1" fill="#797979" d="M 3265.5,331.5 C 3265.67,332.492 3265.34,333.158 3264.5,333.5C 3263.56,332.673 3263.89,332.006 3265.5,331.5 Z"/></g>
<g><path style="opacity:1" fill="#656565" d="M 3262.5,343.5 C 3262.67,344.492 3262.34,345.158 3261.5,345.5C 3260.56,344.673 3260.89,344.006 3262.5,343.5 Z"/></g>
<g><path style="opacity:1" fill="#696969" d="M 3787.5,360.5 C 3786.5,411.428 3786.17,462.428 3786.5,513.5C 3785.5,513.5 3784.5,513.5 3783.5,513.5C 3784.82,462.373 3786.16,411.373 3787.5,360.5 Z"/></g>
<g><path style="opacity:1" fill="#020202" d="M 4087.5,511.5 C 4053.34,512.498 4019,512.832 3984.5,512.5C 3946.32,465.141 3908.65,417.307 3871.5,369C 3906.18,368.104 3940.85,368.437 3975.5,370C 4013.43,416.754 4050.76,463.921 4087.5,511.5 Z"/></g>
<g><path style="opacity:1" fill="#717171" d="M 3228.5,406.5 C 3228.17,407.5 3227.5,408.167 3226.5,408.5C 3226.5,407.167 3227.17,406.5 3228.5,406.5 Z"/></g>
<g><path style="opacity:1" fill="#030303" d="M 1440.5,437.5 C 1537.5,437.333 1634.5,437.5 1731.5,438C 1732.66,462.761 1732.83,487.594 1732,512.5C 1634.9,513.665 1537.74,513.832 1440.5,513C 1439.17,487.833 1439.17,462.667 1440.5,437.5 Z"/></g>
<g><path style="opacity:1" fill="#838383" d="M 2267.5,258.5 C 2267.56,257.957 2267.89,257.624 2268.5,257.5C 2269.5,342.497 2269.83,427.497 2269.5,512.5C 2268.83,427.833 2268.17,343.167 2267.5,258.5 Z"/></g>
<g><path style="opacity:1" fill="#555555" d="M 781.5,288.5 C 781.5,363.5 781.5,438.5 781.5,513.5C 750.995,513.831 720.662,513.498 690.5,512.5C 720.5,512.5 750.5,512.5 780.5,512.5C 780.167,437.665 780.501,362.998 781.5,288.5 Z"/></g>
<g><path style="opacity:1" fill="#575757" d="M 1093.5,7.5 C 1094.5,175.999 1094.83,344.666 1094.5,513.5C 1064,513.831 1033.66,513.498 1003.5,512.5C 1033.5,512.5 1063.5,512.5 1093.5,512.5C 1093.5,344.167 1093.5,175.833 1093.5,7.5 Z"/></g>
<g><path style="opacity:1" fill="#484848" d="M 1990.5,511.5 C 2023,512.498 2055.66,512.832 2088.5,512.5C 2055.66,513.83 2022.66,513.83 1989.5,512.5C 1989.62,511.893 1989.96,511.56 1990.5,511.5 Z"/></g>
<g><path style="opacity:1" fill="#484848" d="M 2631.5,511.5 C 2632.04,511.56 2632.38,511.893 2632.5,512.5C 2599.34,513.83 2566.34,513.83 2533.5,512.5C 2566.34,512.832 2599,512.498 2631.5,511.5 Z"/></g>
<g><path style="opacity:1" fill="#474747" d="M 4087.5,511.5 C 4088.04,511.56 4088.38,511.893 4088.5,512.5C 4053.67,513.83 4019,513.83 3984.5,512.5C 4019,512.832 4053.34,512.498 4087.5,511.5 Z"/></g>
</svg>
