<?xml version="1.0" encoding="utf-8"?>
<!-- Generator: Adobe Illustrator 28.0.0, SVG Export Plug-In . SVG Version: 6.00 Build 0)  -->
<svg version="1.1" id="Слой_1" xmlns="http://www.w3.org/2000/svg" xmlns:xlink="http://www.w3.org/1999/xlink" x="0px" y="0px"
	 viewBox="0 0 906.2 1000" style="enable-background:new 0 0 906.2 1000;" xml:space="preserve">
<style type="text/css">
	.st0{fill:#EA4335;}
	.st1{fill:#FBBC04;}
	.st2{fill:#4285F4;}
	.st3{fill:#34A853;}
</style>
<path class="st0" d="M423.2,477.5L3.9,916.9c0,0.1,0,0.2,0.1,0.3c12.9,47.7,57,82.8,109.4,82.8c20.9,0,40.6-5.6,57.4-15.4l1.3-0.8
	L644,715L423.2,477.5z"/>
<path class="st1" d="M847.3,402.8l-0.4-0.2L643.1,285.9L413.6,487.6L644,715l202.6-115.5c35.5-18.9,59.7-55.9,59.7-98.6
	C906.2,458.6,882.4,421.8,847.3,402.8z"/>
<path class="st2" d="M3.8,83.1C1.3,92.3,0,101.9,0,111.8v776.3c0.4,11.2,1.3,19.6,3.9,28.7l433.7-428.1L3.8,83.1z"/>
<path class="st3" d="M426.3,500l216.9-214.1L171.9,16C154.7,5.8,134.7,0,113.4,0C61,0,16.8,35.2,3.9,83c0,0,0,0.1,0,0.1L426.3,500z"
	/>
</svg>
